<svg width="40" height="40" viewBox="0 0 40 40" fill="none" xmlns="http://www.w3.org/2000/svg">
<path fill-rule="evenodd" clip-rule="evenodd" d="M19.9907 25.8333C23.2123 25.8333 25.824 23.2217 25.824 20C25.824 16.7783 23.2123 14.1667 19.9907 14.1667C16.769 14.1667 14.1573 16.7783 14.1573 20C14.1573 23.2217 16.769 25.8333 19.9907 25.8333ZM19.9907 22.4907C18.6152 22.4907 17.5 21.3755 17.5 20C17.5 18.6245 18.6152 17.5093 19.9907 17.5093C21.3662 17.5093 22.4813 18.6245 22.4813 20C22.4813 21.3755 21.3662 22.4907 19.9907 22.4907Z" fill="#0F0F0F"/>
<path fill-rule="evenodd" clip-rule="evenodd" d="M20 8.33334C11.9813 8.33334 6.52783 12.6818 3.64883 15.7996C1.42899 18.2037 1.42899 21.7963 3.64883 24.2003C6.52783 27.3183 11.9813 31.6667 20 31.6667C28.0187 31.6667 33.4722 27.3183 36.3512 24.2003C38.571 21.7963 38.571 18.2037 36.3512 15.7996C33.4722 12.6818 28.0187 8.33334 20 8.33334ZM6.0978 18.061C8.6472 15.3 13.2782 11.6667 20 11.6667C26.7218 11.6667 31.3528 15.3 33.9022 18.061C34.9428 19.188 34.9428 20.812 33.9022 21.939C31.3528 24.7 26.7218 28.3333 20 28.3333C13.2782 28.3333 8.6472 24.7 6.0978 21.939C5.0571 20.812 5.0571 19.188 6.0978 18.061Z" fill="#0F0F0F"/>
</svg>
