<svg width="50" height="46" viewBox="0 0 50 46" fill="none" xmlns="http://www.w3.org/2000/svg">
<path d="M43.75 25.6104V4.16667H27.0833V0H16.6667V4.16667H6.25V12.5H8.33333V6.25H16.6667V10.4167H27.0833V6.25H41.6667V25.6104L36.8896 20.8333L35.4167 22.3062L42.7083 29.5979L50 22.3062L48.5271 20.8333L43.75 25.6104ZM25 8.33333H18.75V2.08333H25V8.33333ZM41.6667 39.5833H35.4167V35.4167H25V39.5833H8.33333V20.2229L13.1104 25L14.5833 23.5271L7.29167 16.2354L0 23.5271L1.47292 25L6.25 20.2229V41.6667H25V45.8333H35.4167V41.6667H43.75V33.3333H41.6667V39.5833ZM33.3333 43.75H27.0833V37.5H33.3333V43.75Z" fill="black"/>
</svg>
