<svg width="38" height="46" viewBox="0 0 38 46" fill="none" xmlns="http://www.w3.org/2000/svg">
<path d="M12.5 2.08333H27.0833V10.4167H35.4167V31.25H29.1667V33.3333H37.5V7.5L30 0H10.4167V10.4167H12.5V2.08333ZM29.1667 2.08333H29.8125L35.4167 7.6875V8.33333H29.1667V2.08333ZM4.16667 37.5H18.75V39.5833H4.16667V37.5ZM0 45.8333H27.0833V20L19.5833 12.5H0V45.8333ZM18.75 14.5833H19.3958L25 20.1875V20.8333H18.75V14.5833ZM2.08333 14.5833H16.6667V22.9167H25V43.75H2.08333V14.5833ZM4.16667 25H22.9167V27.0833H4.16667V25ZM12.5 31.25H22.9167V33.3333H4.16667V31.25H12.5Z" fill="black"/>
</svg>
