<svg width="43" height="43" viewBox="0 0 43 43" fill="none" xmlns="http://www.w3.org/2000/svg">
<path d="M20.4167 10H22.5V24.5833H20.4167V10ZM23.5417 29.7917C23.5417 29.3796 23.4195 28.9768 23.1906 28.6342C22.9617 28.2916 22.6363 28.0246 22.2556 27.8669C21.8749 27.7092 21.456 27.668 21.0519 27.7484C20.6478 27.8287 20.2766 28.0272 19.9852 28.3185C19.6938 28.6099 19.4954 28.9811 19.415 29.3852C19.3347 29.7894 19.3759 30.2082 19.5336 30.5889C19.6913 30.9696 19.9583 31.295 20.3009 31.5239C20.6435 31.7528 21.0463 31.875 21.4583 31.875C22.0105 31.8739 22.5398 31.6541 22.9303 31.2636C23.3207 30.8731 23.5406 30.3439 23.5417 29.7917ZM42.9167 21.4583C42.9167 25.7024 41.6582 29.8511 39.3003 33.3799C36.9424 36.9088 33.5911 39.6591 29.6701 41.2832C25.7491 42.9074 21.4345 43.3323 17.272 42.5044C13.1095 41.6764 9.28601 39.6327 6.28501 36.6317C3.28401 33.6307 1.2403 29.8072 0.412325 25.6446C-0.415649 21.4821 0.00929758 17.1676 1.63343 13.2466C3.25756 9.32559 6.00793 5.97425 9.53673 3.61638C13.0655 1.25851 17.2143 9.10809e-07 21.4583 9.10809e-07C24.2765 -0.000820277 27.0672 0.553655 29.6711 1.63175C32.2749 2.70984 34.6408 4.29042 36.6335 6.28317C38.6263 8.27592 40.2068 10.6418 41.2849 13.2456C42.363 15.8494 42.9175 18.6402 42.9167 21.4583ZM40.8333 21.4583C40.8333 17.6263 39.697 13.8804 37.5681 10.6942C35.4391 7.50796 32.4132 5.02462 28.8728 3.55817C25.3325 2.09172 21.4369 1.70803 17.6785 2.45562C13.9201 3.20321 10.4678 5.0485 7.75815 7.75814C5.04851 10.4678 3.20322 13.9201 2.45563 17.6785C1.70804 21.4368 2.09173 25.3325 3.55818 28.8728C5.02462 32.4131 7.50797 35.4391 10.6942 37.5681C13.8804 39.697 17.6263 40.8333 21.4583 40.8333C26.5952 40.8278 31.5201 38.7848 35.1524 35.1524C38.7848 31.5201 40.8278 26.5952 40.8333 21.4583Z" fill="black"/>
</svg>
